<svg xmlns="http://www.w3.org/2000/svg" fill="none" preserveAspectRatio="none" viewBox="-20 -10 120 120">
  <path fill="#597BA4" d="M79 58c0 14.3 20.3 32.5-33.7 32.5C-19.5 90.5 5 72.3 5 58s12.3-26 37-26 37 11.8 37 26Z"/>
  <path fill="#BF78E0" d="M72 59.8c0 11.7 16.8 26.6-27.8 26.6-53.4 0-33.2-15-33.2-26.6 0-11.6 10-21.3 30.5-21.3 20.4 0 30.5 9.7 30.5 21.3Z"/>
  <ellipse cx="42" cy="29.2" fill="#597BA4" rx="42" ry="24.5"/>
  <ellipse cx="21.1" cy="10.4" fill="#597BA4" rx="10.9" ry="10.4"/>
  <ellipse cx="64.2" cy="10.4" fill="#597BA4" rx="10.9" ry="10.4"/>
  <ellipse cx="20.5" cy="9.6" fill="#1E1E1E" rx="3.8" ry="6"/>
  <ellipse cx="64.4" cy="9.6" fill="#1E1E1E" rx="3.8" ry="6"/>
  <ellipse cx="63.1" cy="7.8" fill="#D9D9D9" rx="1.3" ry="2.1"/>
  <ellipse cx="19.2" cy="7.8" fill="#D9D9D9" rx="1.3" ry="2.1"/>
  <ellipse cx="20.5" cy="15.4" fill="#E54E85" rx="3.8" ry="1.3"/>
  <ellipse cx="64.4" cy="15.4" fill="#E64E85" rx="3.8" ry="1.3"/>
  <path stroke="#287048" stroke-linecap="round" stroke-width="2" d="m37 16-.4.7-.2.6v.2c-.2.5 0 1 .2 1.4v0c.2.4.6.7 1 .8v0l.6.1h2.2v0c.5-.2.8-.5 1-.9l.2-.2.3-1 .2-1.1m.4-.1.2 1.2c0 .3.1.7.3 1l.1.2c.2.4.5.6 1 .8v0h2.5v0c.4-.2.7-.5.8-.8l.2-.2.2-1.1h0c0-.4 0-.8-.3-1.2l-.3-.6"/>
  <path fill="#387252" d="M24.4 82c21.2-18.4 5.7 12-3.2 12s-15-9.1-15-15.6 7.3 2.2 9.4 4.2c3-10.6 6.3-11.7 8.8-.6ZM68 82c20.7-18.4 5.6 12-3.1 12S50 84.9 50 78.4s7.2 2.2 9.2 4.2c3-10.6 6.2-11.7 8.7-.6Z"/>
</svg>
