<svg xmlns="http://www.w3.org/2000/svg" fill="none" viewBox="0 0 160 155">
  <g filter="url(#a)"><path fill="#F7623F" d="M151 73c2 1 4 2 5 5 9 15-1 34-11 46a84 84 0 0 1-47 26c-16 3-32 7-47 2l-9-3c-15-3-28-23-35-37-6-16-8-40-3-56 5-17 19-33 34-42C53 4 73 0 91 2c16 2 33 6 47 20 3 2 5 5 5 9l1 3v9l-1 5-2 5-1 3c-3 4-6 7-11 9l-6 2-3 1-22 5 34-4h4l6 1 8 2 1 1Z"/></g>
  <g filter="url(#b)"><path stroke="#000" d="m64 5 13 71"/>
  </g>
  <g filter="url(#c)"><path stroke="#000" d="m17 35 59 41"/>
  </g>
  <g filter="url(#d)"><path stroke="#000" d="m5 85 71-9"/>
  </g>
  <g filter="url(#e)"><path stroke="#000" d="m17 121 60-45"/>
  </g>
  <g filter="url(#f)"><path stroke="#000" d="m47 148 29-72"/>
  </g>
  <g filter="url(#g)"><path stroke="#000" d="M93 148 76 76"/>
  </g>
  <g filter="url(#h)"><path stroke="#000" d="m76 76 55 54"/>
  </g>
  <g filter="url(#i)"><path stroke="#000" d="m76 76 41-64"/>
  </g>
  <g filter="url(#j)"><path stroke="#000" d="m76 76 79 23"/>
  </g>
  <g filter="url(#k)"><path stroke="#000" d="M91 6 78 75"/>
  </g>
  <g filter="url(#l)"><path stroke="#000" d="m41 16 35 59"/>
  </g>
  <g filter="url(#m)"><path stroke="#000" d="m9 62 68 14"/>
  </g>
  <g filter="url(#n)"><path stroke="#000" d="m13 103 64-27"/>
  </g>
  <g filter="url(#o)"><path stroke="#000" d="m31 134 45-58"/>
  </g>
  <g filter="url(#p)"><path stroke="#000" d="m70 145 6-70"/>
  </g>
  <g filter="url(#q)"><path stroke="#000" d="M110 137 77 75"/>
  </g>
  <g filter="url(#r)"><path stroke="#000" d="m77 75 60-40"/>
  </g>
  <g filter="url(#s)"><path stroke="#000" d="M145 116 76 76"/>
  </g>
  <defs><filter id="a" width="158.7" height="156.4" x="1" y="2" color-interpolation-filters="sRGB" filterUnits="userSpaceOnUse">  <feFlood flood-opacity="0" result="BackgroundImageFix"/>  <feBlend in="SourceGraphic" in2="BackgroundImageFix" result="shape"/>  <feColorMatrix in="SourceAlpha" result="hardAlpha" values="0 0 0 0 0 0 0 0 0 0 0 0 0 0 0 0 0 0 127 0"/>  <feOffset dy="4"/>  <feGaussianBlur stdDeviation="2"/>  <feComposite in2="hardAlpha" k2="-1" k3="1" operator="arithmetic"/>  <feColorMatrix values="0 0 0 0 0 0 0 0 0 0 0 0 0 0 0 0 0 0 0.25 0"/>  <feBlend in2="shape" result="effect1_innerShadow_1_57"/>  <feColorMatrix in="SourceAlpha" result="hardAlpha" values="0 0 0 0 0 0 0 0 0 0 0 0 0 0 0 0 0 0 127 0"/>  <feOffset dy="4"/>  <feGaussianBlur stdDeviation="2"/>  <feComposite in2="hardAlpha" k2="-1" k3="1" operator="arithmetic"/>  <feColorMatrix values="0 0 0 0 0 0 0 0 0 0 0 0 0 0 0 0 0 0 0.25 0"/>  <feBlend in2="effect1_innerShadow_1_57" result="effect2_innerShadow_1_57"/></filter><filter id="b" width="22" height="79.2" x="59" y="1" color-interpolation-filters="sRGB" filterUnits="userSpaceOnUse">  <feFlood flood-opacity="0" result="BackgroundImageFix"/>  <feBlend in="SourceGraphic" in2="BackgroundImageFix" result="shape"/>  <feGaussianBlur result="effect1_foregroundBlur_1_57" stdDeviation="2"/></filter><filter id="c" width="67.6" height="49.8" x="13" y="30" color-interpolation-filters="sRGB" filterUnits="userSpaceOnUse">  <feFlood flood-opacity="0" result="BackgroundImageFix"/>  <feBlend in="SourceGraphic" in2="BackgroundImageFix" result="shape"/>  <feGaussianBlur result="effect1_foregroundBlur_1_57" stdDeviation="2"/></filter><filter id="d" width="79.1" height="18" x="1" y="71" color-interpolation-filters="sRGB" filterUnits="userSpaceOnUse">  <feFlood flood-opacity="0" result="BackgroundImageFix"/>  <feBlend in="SourceGraphic" in2="BackgroundImageFix" result="shape"/>  <feGaussianBlur result="effect1_foregroundBlur_1_57" stdDeviation="2"/></filter><filter id="e" width="68.6" height="53.8" x="12" y="71" color-interpolation-filters="sRGB" filterUnits="userSpaceOnUse">  <feFlood flood-opacity="0" result="BackgroundImageFix"/>  <feBlend in="SourceGraphic" in2="BackgroundImageFix" result="shape"/>  <feGaussianBlur result="effect1_foregroundBlur_1_57" stdDeviation="2"/></filter><filter id="f" width="37.9" height="80.4" x="42" y="72" color-interpolation-filters="sRGB" filterUnits="userSpaceOnUse">  <feFlood flood-opacity="0" result="BackgroundImageFix"/>  <feBlend in="SourceGraphic" in2="BackgroundImageFix" result="shape"/>  <feGaussianBlur result="effect1_foregroundBlur_1_57" stdDeviation="2"/></filter><filter id="g" width="26" height="80.2" x="71" y="72" color-interpolation-filters="sRGB" filterUnits="userSpaceOnUse">  <feFlood flood-opacity="0" result="BackgroundImageFix"/>  <feBlend in="SourceGraphic" in2="BackgroundImageFix" result="shape"/>  <feGaussianBlur result="effect1_foregroundBlur_1_57" stdDeviation="2"/></filter><filter id="h" width="63.7" height="62.7" x="72" y="71" color-interpolation-filters="sRGB" filterUnits="userSpaceOnUse">  <feFlood flood-opacity="0" result="BackgroundImageFix"/>  <feBlend in="SourceGraphic" in2="BackgroundImageFix" result="shape"/>  <feGaussianBlur result="effect1_foregroundBlur_1_57" stdDeviation="2"/></filter><filter id="i" width="49.8" height="72.5" x="71" y="8" color-interpolation-filters="sRGB" filterUnits="userSpaceOnUse">  <feFlood flood-opacity="0" result="BackgroundImageFix"/>  <feBlend in="SourceGraphic" in2="BackgroundImageFix" result="shape"/>  <feGaussianBlur result="effect1_foregroundBlur_1_57" stdDeviation="2"/></filter><filter id="j" width="86.6" height="32.4" x="72" y="71" color-interpolation-filters="sRGB" filterUnits="userSpaceOnUse">  <feFlood flood-opacity="0" result="BackgroundImageFix"/>  <feBlend in="SourceGraphic" in2="BackgroundImageFix" result="shape"/>  <feGaussianBlur result="effect1_foregroundBlur_1_57" stdDeviation="2"/></filter><filter id="k" width="22" height="77.2" x="73" y="2" color-interpolation-filters="sRGB" filterUnits="userSpaceOnUse">  <feFlood flood-opacity="0" result="BackgroundImageFix"/>  <feBlend in="SourceGraphic" in2="BackgroundImageFix" result="shape"/>  <feGaussianBlur result="effect1_foregroundBlur_1_57" stdDeviation="2"/></filter><filter id="l" width="43.9" height="67.5" x="37" y="12" color-interpolation-filters="sRGB" filterUnits="userSpaceOnUse">  <feFlood flood-opacity="0" result="BackgroundImageFix"/>  <feBlend in="SourceGraphic" in2="BackgroundImageFix" result="shape"/>  <feGaussianBlur result="effect1_foregroundBlur_1_57" stdDeviation="2"/></filter><filter id="m" width="76.2" height="23" x="5" y="57" color-interpolation-filters="sRGB" filterUnits="userSpaceOnUse">  <feFlood flood-opacity="0" result="BackgroundImageFix"/>  <feBlend in="SourceGraphic" in2="BackgroundImageFix" result="shape"/>  <feGaussianBlur result="effect1_foregroundBlur_1_57" stdDeviation="2"/></filter><filter id="n" width="72.4" height="35.9" x="9" y="71" color-interpolation-filters="sRGB" filterUnits="userSpaceOnUse">  <feFlood flood-opacity="0" result="BackgroundImageFix"/>  <feBlend in="SourceGraphic" in2="BackgroundImageFix" result="shape"/>  <feGaussianBlur result="effect1_foregroundBlur_1_57" stdDeviation="2"/></filter><filter id="o" width="53.8" height="66.6" x="26" y="71" color-interpolation-filters="sRGB" filterUnits="userSpaceOnUse">  <feFlood flood-opacity="0" result="BackgroundImageFix"/>  <feBlend in="SourceGraphic" in2="BackgroundImageFix" result="shape"/>  <feGaussianBlur result="effect1_foregroundBlur_1_57" stdDeviation="2"/></filter><filter id="p" width="15" height="78.1" x="65" y="71" color-interpolation-filters="sRGB" filterUnits="userSpaceOnUse">  <feFlood flood-opacity="0" result="BackgroundImageFix"/>  <feBlend in="SourceGraphic" in2="BackgroundImageFix" result="shape"/>  <feGaussianBlur result="effect1_foregroundBlur_1_57" stdDeviation="2"/></filter><filter id="q" width="41.9" height="70.5" x="72" y="71" color-interpolation-filters="sRGB" filterUnits="userSpaceOnUse">  <feFlood flood-opacity="0" result="BackgroundImageFix"/>  <feBlend in="SourceGraphic" in2="BackgroundImageFix" result="shape"/>  <feGaussianBlur result="effect1_foregroundBlur_1_57" stdDeviation="2"/></filter><filter id="r" width="68.6" height="48.8" x="72" y="30" color-interpolation-filters="sRGB" filterUnits="userSpaceOnUse">  <feFlood flood-opacity="0" result="BackgroundImageFix"/>  <feBlend in="SourceGraphic" in2="BackgroundImageFix" result="shape"/>  <feGaussianBlur result="effect1_foregroundBlur_1_57" stdDeviation="2"/></filter><filter id="s" width="77.5" height="48.9" x="72" y="72" color-interpolation-filters="sRGB" filterUnits="userSpaceOnUse">  <feFlood flood-opacity="0" result="BackgroundImageFix"/>  <feBlend in="SourceGraphic" in2="BackgroundImageFix" result="shape"/>  <feGaussianBlur result="effect1_foregroundBlur_1_57" stdDeviation="2"/></filter>
  </defs>
</svg>
