<?xml version="1.0" standalone="no"?>
<!DOCTYPE svg PUBLIC "-//W3C//DTD SVG 20010904//EN"
 "http://www.w3.org/TR/2001/REC-SVG-20010904/DTD/svg10.dtd">
<svg version="1.0" xmlns="http://www.w3.org/2000/svg"
 width="80.000000pt" height="80.000000pt" viewBox="0 0 80.000000 80.000000"
 preserveAspectRatio="xMidYMid meet">
<metadata>
Created by potrace 1.14, written by Peter Selinger 2001-2017
</metadata>
<g transform="translate(0.000000,80.000000) scale(0.100000,-0.100000)"
fill="#000000" stroke="none">
<path d="M180 705 c-27 -14 -49 -51 -50 -82 0 -12 -9 -27 -19 -33 -30 -16 -61
-74 -61 -114 0 -42 12 -70 46 -106 22 -24 23 -27 9 -70 -18 -60 -47 -177 -52
-217 -4 -25 1 -38 21 -57 l25 -26 293 0 c320 0 330 2 341 57 3 15 -1 50 -8 77
-7 28 -16 72 -19 98 -3 26 -12 62 -19 81 -14 31 -13 34 18 70 57 66 53 138
-11 198 -14 13 -24 34 -24 50 0 69 -87 107 -147 63 -24 -17 -43 -20 -125 -19
-74 0 -101 4 -115 17 -24 22 -74 28 -103 13z"/>
</g>
</svg>
